<svg xmlns="http://www.w3.org/2000/svg" viewBox="0 0 1024 1024"><path fill="#40e6f6" stroke="#40e6f6" d="M490.274 200.996c-22.655 1.907-61.571 10.261-78.275 16.801a9490.033 9490.033 0 0 1-20.999 8.18c-26.915 10.454-58.429 29.215-82.325 49.011-9.093 7.532-31.311 29.719-37.88 37.825-.938 1.158-3.675 4.523-6.083 7.479-7.765 9.534-25.712 36.023-25.712 37.951 0 .258-2.159 4.247-4.797 8.864-5.189 9.077-5.939 10.606-12.194 24.851-61.441 139.928-11.219 306.769 117.199 389.343 99.496 63.978 218.231 69.448 325.058 14.975C795.67 729.271 860.937 574.244 818.968 428.82 799.528 361.461 759.859 305.722 699 260.251c-56.339-42.094-137.817-65.224-208.726-59.255M501 257.011c-67.403 6.576-126.613 58.331-136.504 119.317-6.193 38.183 7.47 78.438 35.737 105.288 18.624 17.691 42.05 29.776 91.767 47.34 7.975 2.817 23.5 8.305 34.5 12.196 36.848 13.033 55.141 24.283 69.964 43.029 39.376 49.796 13.925 118.237-52.683 141.673-47.118 16.579-108.607-3.403-139.567-45.354-22.205-30.088-12.209-63.833 18.466-62.337 15.044.734 23.687 8.083 33.301 28.314 13.442 28.287 29.558 39.856 55.519 39.856 54.867 0 69.503-68.6 19.353-90.712-5.784-2.55-15.74-5.662-33.853-10.582-24.992-6.787-66.044-20.597-80.745-27.162l-6.245-2.789-10.552 4.361c-36.205 14.962-59.392 40.757-64.404 71.65-9.64 59.407 50.619 121.945 134.446 139.531 19.414 4.073 54.823 4.127 73.602.112 100.116-21.402 152.951-114.247 109.817-192.98-18.274-33.356-44.788-50.571-118.919-77.207-59.256-21.292-73.541-28.285-89.845-43.983-29.957-28.843-35.788-70.291-14.993-106.572 38.55-67.258 144.721-67.53 195.538-.5 20.988 27.683 15.246 58.151-11.763 62.421-15.614 2.468-26.901-5.888-37.715-27.923-13.177-26.85-31.51-39.998-55.769-39.998-44.652 0-65.825 51.332-33.552 81.34 6.865 6.383 17.454 11.164 39.099 17.652 25.905 7.766 63.418 20.404 80.784 27.217l15.283 5.996 5.717-2.292c25.217-10.112 36.428-17.642 49.307-33.118 28.261-33.959 23.825-81.817-11.292-121.824-38.496-43.858-102.23-67.966-163.799-61.96" fill-rule="evenodd"/><path fill="#11bac3" stroke="#11bac3" d="M483 202.125c-26.013 2.996-62.594 11.954-72.25 17.692-5.507 3.273-7.484 5.062-4.198 3.801.944-.362 1.296-.181.899.462-.359.581-1.306.806-2.105.499-1.747-.67-6.558 2.269-5.778 3.53.302.49-.344.891-1.438.891-1.093 0-2.662.675-3.487 1.5-.825.825-1.927 1.5-2.449 1.5-.522 0-1.509.675-2.194 1.5-.86 1.036-.898 1.5-.122 1.5.617 0 1.122.502 1.122 1.117 0 .624-.882.886-2 .593-1.1-.287-2-.115-2 .384 0 .498-.702.906-1.559.906s-1.284.445-.948.989c.341.552-.03.742-.84.431-.798-.306-1.748-.076-2.111.512-.363.587-.157 1.068.458 1.068s.852.43.527.956c-.325.526-1.257.701-2.071.389-.906-.348-4.093 1.698-8.218 5.277-91.347 79.24-99.728 207.185-18.002 274.833 28.564 23.643 69.748 41.51 145.264 63.019 33.258 9.473 39.29 12.156 48.649 21.644 33.478 33.939 1.383 88.086-46.796 78.949-20.887-3.961-33.944-15.317-46.022-40.023-10.516-21.514-19.933-28.791-35.973-27.8-28.689 1.774-35.952 33.627-14.321 62.806 29.192 39.378 86.994 59.598 132.594 46.384 71.388-20.687 99.788-92.558 57.279-144.952-15.174-18.702-31.908-28.253-77.41-44.182-63.395-22.192-78.795-28.742-99.5-42.319-57.288-37.566-72.215-112.31-33.907-169.775 23.591-35.386 59.332-58.73 103.907-67.866 11.81-2.421 43.873-2.92 58.282-.907 6.48.905 12.288 1.333 12.905.952.684-.423.843-.243.408.46-.463.75.124 1.155 1.673 1.155 3.807 0 22.642 5.582 33.699 9.987 83.353 33.208 124.425 113.84 84.923 166.72-4.734 6.337-4.765 5.718.36 7.23 4.188 1.235 12.087 4.522 24.663 10.262 23.782 10.855 50.421 31.416 67.066 51.762 10.696 13.074 23.95 35.727 22.385 38.259-.37.599-.235.818.3.488.76-.47 2.899 3.552 3.878 7.292.072.275.422 1.175.778 2 2.203 5.108 3.461 10.122 2.991 11.92-.299 1.144-.087 2.08.472 2.08.558 0 1.173 1.982 1.366 4.405.193 2.422.014 4.195-.399 3.941-.413-.255-.75-2.039-.75-3.964 0-2.079-.406-3.249-1-2.882-1.02.63-1.371-.62-1.052-3.75.146-1.437-.638-1.75-4.385-1.75-3.389 0-4.563.386-4.563 1.5 0 1.208-1.556 1.5-8 1.5-7.867 0-8 .042-8 2.5 0 2.25-.4 2.5-4 2.5-3.333 0-4 .333-4 2 0 1.917-.667 2-16 2-13.333 0-16 .242-16 1.455 0 1.886-4.239 6.113-6.803 6.783-1.589.416-2.117-.089-2.596-2.483-.95-4.75-.795-6.602.399-4.755 1.157 1.791 1.187.308.049-2.5-1.384-3.418-2.508 5.098-1.225 9.28.754 2.455.772 4.04.058 5.135-.88 1.351-.947 1.313-.454-.256.319-1.013-.077-3.263-.879-5-4.592-9.947-6.456-16.338-4.394-15.064.721.446.882.274.43-.457-.398-.644-1.219-.864-1.824-.49-.715.442-.87.079-.442-1.036.362-.944.25-1.463-.25-1.155-.499.309-1.453-1.13-2.119-3.198-.666-2.067-1.61-4.264-2.098-4.882-.487-.618-.611-1.968-.275-3 .424-1.302.33-1.485-.309-.599-.668.927-1.653-.069-3.595-3.638-15.867-29.153-52.01-59.629-86.173-72.663-3.3-1.258-12.472-4.824-20.383-7.923-17.212-6.742-51.45-18.233-77.617-26.05-31.282-9.344-42.887-16.586-50.275-31.37-13.826-27.667 2.295-61.543 31.964-67.17 29.441-5.583 53.096 7.676 68.182 38.218 10.368 20.991 17.682 27.597 31.629 28.565 21.104 1.465 34.975-18.122 28.531-40.289-9.058-31.156-47.532-61.354-89.112-69.943-75.18-15.529-143.814 46.35-126.43 113.985 6.288 24.461 22.906 44.383 49.011 58.754 10.203 5.617 23.436 10.937 62.853 25.267 53.362 19.401 63.371 23.87 82.638 36.899 56.368 38.119 70.48 110.461 32.691 167.58-21.351 32.272-60.948 57.876-103.682 67.042-14.165 3.038-47.191 3.837-63.661 1.54-67.792-9.456-129.485-55.327-142.961-106.298-6.768-25.599-.179-56.946 15.614-74.284 2.363-2.595 2.756-7.084.679-7.776-.644-.215-1.171.069-1.171.63 0 1.528-7.286.171-8.719-1.624-1.024-1.283-1.476-1.313-2.826-.193-1.325 1.1-1.75 1.104-2.419.021-.447-.723-1.222-1.061-1.722-.752-.5.309-1.563.099-2.362-.466-1.171-.83-1.104-.916.35-.446 1.097.355 1.553.181 1.166-.446-.35-.566-1.451-.771-2.447-.455-2.491.791-9.462-2.567-7.776-3.746.812-.568.506-.669-.866-.286-2.078.58-19.098-7.443-20.491-9.659-.336-.535-1.011-.955-1.5-.933-.488.022-3.317-1.402-6.286-3.165-12.598-7.477-17.143-10.819-16.425-12.076.354-.62.287-.806-.148-.413-1.202 1.085-3.926-.706-12.865-8.458-34.309-29.754-54.154-65.66-57.296-103.665l-.71-8.592-1.332 5c-35.793 134.344 17.894 273.635 134.106 347.935 55.702 35.614 127.338 54.841 189.028 50.736 86.425-5.751 169.752-45.596 223.079-106.671 11.001-12.599 21.716-27.278 20.889-28.616-.45-.729-.312-.93.356-.518 2.307 1.426 18.336-26.311 28.816-49.866 32.679-73.447 36.709-154.937 11.39-230.341-22.058-65.693-64.865-121.486-124.49-162.257-13.862-9.479-24.177-15.22-25.677-14.292-.627.387-.859.256-.519-.293.93-1.505-11.423-7.57-13.815-6.783-1.402.461-1.599.375-.668-.292 1.403-1.007.937-1.285-11.321-6.744-25.357-11.294-61.158-20.907-89.207-23.954-15.42-1.676-53.302-1.915-66.293-.419m45.813.558c.721.289 1.584.253 1.916-.079.332-.332-.258-.568-1.312-.525-1.165.048-1.402.285-.604.604m-54 3c.721.289 1.584.253 1.916-.079.332-.332-.258-.568-1.312-.525-1.165.048-1.402.285-.604.604m-35.342 6.27c.58.938.203 1.078-1.471.547-1.533-.487-2.032-.361-1.566.393.833 1.348 3.234 1.453 4.023.176.317-.512.049-1.256-.595-1.654-.767-.474-.902-.289-.391.538m3.279-.291c.688.278 1.813.278 2.5 0 .688-.277.125-.504-1.25-.504s-1.937.227-1.25.504m-11.094 2.792c-.321.836.303 1.085 1.935.773 2.915-.557 3.004-.838.474-1.5-1.065-.278-2.149.049-2.409.727m11.094-.792c.688.278 1.813.278 2.5 0 .688-.277.125-.504-1.25-.504s-1.937.227-1.25.504m-16.937 2.021c.721.289 1.584.253 1.916-.079.332-.332-.258-.568-1.312-.525-1.165.048-1.402.285-.604.604m-12.306 4.306c-.35.566.051.734.941.393 1.732-.665 2.049-1.382.611-1.382-.518 0-1.216.445-1.552.989m-37 349c-.35.566.051.734.941.393 1.732-.665 2.049-1.382.611-1.382-.518 0-1.216.445-1.552.989m-7.625 2.261c-.066.688-.051 1.789.031 2.448.083.659-.876 1.737-2.131 2.397-1.255.66-3.407 2.336-4.782 3.725-3.406 3.44-.759 1.796 6.75-4.194 6.138-4.896 8.401-7.246 4.027-4.183-2.8 1.962-3.877 1.981-3.139.057.317-.825.303-1.5-.031-1.5-.334 0-.66.563-.725 1.25m353.355 1.99c.694 1.482 1.428 2.215 1.629 1.629.201-.586-.367-1.799-1.263-2.695-1.506-1.506-1.534-1.425-.366 1.066M336 579c0 .55.477 1 1.059 1s.781-.45.441-1-.816-1-1.059-1-.441.45-.441 1m469.158 1c0 1.375.227 1.938.504 1.25.278-.687.278-1.812 0-2.5-.277-.687-.504-.125-.504 1.25M354 581c0 .55.477 1 1.059 1s.781-.45.441-1-.816-1-1.059-1-.441.45-.441 1m2.872 4.75c-1.243 1.586-1.208 1.621.378.378 1.666-1.307 2.195-2.128 1.372-2.128-.207 0-.995.788-1.75 1.75m-9.872.461c.275.271 2.065 1.021 3.977 1.668 1.913.646 3.038.745 2.5.219-.537-.526-2.327-1.277-3.977-1.668s-2.775-.49-2.5-.219m379.441 6.082c-.273.711-.077 3.073.435 5.25l.931 3.957-.153-5.243c-.16-5.444-.375-6.147-1.213-3.964m1.754 13.207c.02 1.65.244 2.204.498 1.231.254-.973.237-2.323-.037-3-.274-.677-.481.119-.461 1.769" fill-rule="evenodd"/><path fill="#068198" stroke="#068198" d="M690 357.941c0 .518.445 1.216.989 1.552.566.35.734-.051.393-.941-.665-1.732-1.382-2.049-1.382-.611M794.031 370.5c0 .55.436 1.675.969 2.5.533.825.969 1.05.969.5s-.436-1.675-.969-2.5c-.533-.825-.969-1.05-.969-.5m1.625 9.094c-1.697 2.329-1.944 2.395-3.094.821-1.72-2.352-6.562-1.169-6.562 1.604 0 1.09-.45 1.981-1 1.981s-1-.45-1-1-1.35-1-3-1c-3.021 0-4.07-1.401-1.75-2.338.721-.291.479-.538-.571-.583-1.981-.086-4.679 2.134-4.679 3.85 0 .589-1.35 1.071-3 1.071-2 0-3 .5-3 1.5s-1 1.5-3 1.5-3-.5-3-1.5c0-1.887-18.444-2.166-22.453-.339-3.382 1.54-3.217 2.203.953 3.839 1.925.755 3.5 1.739 3.5 2.187 0 .447.831.813 1.847.813s2.885.9 4.153 2c1.268 1.1 2.726 2 3.24 2 .513 0 2.807 1.275 5.097 2.834 2.289 1.558 7.088 4.797 10.663 7.197 3.575 2.4 6.725 4.634 7 4.964.275.331 1.85 1.544 3.5 2.697 2.74 1.913 17.149 16.085 23.71 23.32 3.216 3.544 2.163 4.078-1.131.573-1.248-1.329-3.392-2.698-4.765-3.042-1.62-.407-2.304-1.127-1.949-2.051.424-1.107-.112-1.293-2.409-.833-2.242.448-2.956.222-2.956-.936 0-.84-1.417-2.021-3.149-2.625C782.915 426.726 776 426.663 776 428c0 .55-1.8 1-4 1-2.889 0-4 .417-4 1.5 0 1.292-3.333 1.5-24 1.5s-24 .208-24 1.5c0 1.256-2.103 1.5-12.927 1.5-12.362 0-13.008.102-14.768 2.339-1.012 1.287-2.468 2.549-3.235 2.804-1.701.567-2.309 3.61-.713 3.57 3.43-.085 5.643.395 5.643 1.224 0 .516-1.687.736-3.75.491-2.062-.245-3.075-.171-2.25.165 32.136 13.088 62.717 34.248 81.117 56.128 4.061 4.829 7.72 8.929 8.133 9.112.413.184.75.794.75 1.356 0 .563 1.328 2.699 2.95 4.748 9.321 11.768 21.698 40.506 25.458 59.109 3.805 18.824 4.644 48.028 1.664 57.888-2.064 6.828-.284 3.916 2.848-4.66 25.317-69.32 26.835-141.345 4.422-209.774-3.989-12.178-11.281-29.813-12.543-30.335-.447-.185-.497-.86-.113-1.5.384-.641-.063-.547-.994.207-1.898 1.54-2.165.881-.731-1.8.683-1.276.523-2.342-.555-3.684-1.441-1.794-1.464-1.779-.458.301 1.14 2.361-.252 4.246-1.566 2.12-1.133-1.833-1.387-5.93-.327-5.275.507.313.654-.128.327-.982-.732-1.907-.518-1.989-2.726 1.042M790 382c0 1.111.667 2 1.5 2 1.683 0 1.751-.183.893-2.418-.857-2.235-2.393-1.966-2.393.418m-153.921.583c.048 1.165.285 1.402.604.605.289-.722.253-1.585-.079-1.917-.332-.332-.568.258-.525 1.312m158.621-.242c-.283.737-.064 1.975.487 2.75.793 1.116.884 1.045.439-.341-.31-.962-.127-1.75.405-1.75.533 0 .969-.45.969-1 0-1.47-1.702-1.218-2.3.341m-216.7 5.37c0 .574.788 1.662 1.75 2.417 1.619 1.269 1.64 1.222.283-.628-.807-1.1-1.594-2.187-1.75-2.417-.156-.229-.283.054-.283.628M626 393c0 1.65.45 3 1 3s1-1.35 1-3-.45-3-1-3-1 1.35-1 3m175.537-1.019c.628 2.093 4.365 8.019 5.057 8.019.121 0-.017-.9-.304-2-.288-1.1-.921-2-1.407-2-.485 0-.897-.562-.915-1.25-.017-.687-.739-2.15-1.603-3.25-1.527-1.943-1.551-1.929-.828.481M581 393.678c0 .557 1.013 1.869 2.25 2.917l2.25 1.905-1.989-2.5c-1.094-1.375-2.107-2.687-2.25-2.917-.144-.229-.261.039-.261.595m219.638 3.822c-.316.825-.139 1.5.393 1.5.533 0 .969-.675.969-1.5s-.177-1.5-.393-1.5c-.216 0-.652.675-.969 1.5m-191.047 2c-1.375 1.375-3.169 2.5-3.987 2.5-.817 0-1.764.45-2.104 1-.34.55.174 1 1.141 1 1.368 0 1.492.267.559 1.2-2.128 2.128-1.433 4.078 1.27 3.561 1.358-.26 2.232-.087 1.941.383-.291.471-2.19.91-4.22.976l-3.691.12 4.381 1.05c3.296.79 5.154.733 7.5-.227 1.716-.702 4.019-1.253 5.119-1.225 1.829.048 1.85-.033.25-.943-2.351-1.336-2.217-2.895.25-2.895 1.1 0 2-.45 2-1s.9-1 2-1c1.111 0 2-.667 2-1.5 0-.825.436-1.5.969-1.5.532 0 .715.788.405 1.75-.459 1.427-.373 1.482.466.298.565-.799.806-1.811.535-2.25-.717-1.16-6.375-.98-6.375.202 0 .55-.477 1-1.059 1s-.781-.45-.441-1c1.39-2.25-1.894-.79-4.5 2-3.031 3.245-6 3.952-6 1.429 0-2.361 2.535-4.429 5.429-4.429 1.619 0 2.571-.556 2.571-1.5 0-2.335-3.643-1.766-6.409 1m-23.258 0c0 .825.375 1.5.834 1.5.458 0 .833-.675.833-1.5s-.375-1.5-.833-1.5c-.459 0-.834.675-.834 1.5M628 403c-.589 1.1-.845 2-.57 2s.981-.9 1.57-2c.589-1.1.845-2 .57-2s-.981.9-1.57 2m-158 .941c0 .518.445 1.216.989 1.552.566.35.734-.051.393-.941-.665-1.732-1.382-2.049-1.382-.611m-51.362 1.559c.317.825.753 1.5.969 1.5.216 0 .393-.675.393-1.5s-.436-1.5-.969-1.5c-.532 0-.709.675-.393 1.5m48.52.5c0 1.375.227 1.938.504 1.25.278-.687.278-1.812 0-2.5-.277-.687-.504-.125-.504 1.25M354 406.5c0 .825.45 1.5 1 1.5s1-.675 1-1.5-.45-1.5-1-1.5-1 .675-1 1.5m242 2c1.375.786 2.95 1.429 3.5 1.429.55 0-.125-.643-1.5-1.429s-2.95-1.429-3.5-1.429c-.55 0 .125.643 1.5 1.429m-176.805 2c.02 1.65.244 2.204.498 1.231.254-.973.237-2.323-.037-3-.274-.677-.481.119-.461 1.769M611 409c-1.242.803-1.156.969.5.969 1.1 0 2.675-.436 3.5-.969 1.242-.803 1.156-.969-.5-.969-1.1 0-2.675.436-3.5.969m-257 4c0 1.65-.45 3-1 3s-1 .675-1 1.5c0 .833-.889 1.5-2 1.5-1.16 0-2 .667-2 1.588 0 1.298-.729 1.465-4 .912s-4-.386-4 .912c0 1.88-3.627 2.166-4.28.338-.259-.727-.817-.879-1.333-.363s-.364 1.074.363 1.333c.711.254 1.25 2.135 1.25 4.363 0 3.903-.014 3.917-4 3.917-2.2 0-4-.45-4-1 0-.593-3.667-1-9-1-7.333 0-9-.278-9-1.5 0-2.616-5.761-1.938-6.373.75-.281 1.238-.368.113-.192-2.5.385-5.72.005-6.002-1.371-1.021-1.163 4.215.655 17.332 2.086 15.044.492-.788.758-.129.697 1.727-.167 5.103.559 7.302 9.139 27.697 3.089 7.344 13.281 23.933 15.135 24.636.483.184.879.927.879 1.652 0 2.112 18.645 21.13 27.445 27.994 29.549 23.049 70.688 40.578 144.055 61.379 25.42 7.207 30.578 9.099 38.146 13.995C580.831 626.495 561.603 687 511.95 687c-25.252 0-42.737-12.356-56.03-39.595-10.85-22.232-18.818-28.919-34.42-28.89-28.01.052-37.876 30.091-19.141 58.274 32.373 48.694 103.916 68.594 154.934 43.094 60.07-30.024 75.932-96.092 33.859-141.023-16.723-17.859-30.857-25.486-76.652-41.363-62.783-21.766-82.161-30.369-102.113-45.33-9.312-6.983-20.767-17.765-23.814-22.416-.986-1.504-2.262-2.443-2.837-2.088-.575.355-.765.194-.424-.359.616-.997-3.298-7.059-5.393-8.354-.599-.37-1.051-.961-1.004-1.312.262-1.964-.02-2.691-.846-2.181-.512.317-1.256.049-1.654-.595-.452-.731-.291-.903.43-.457 1.883 1.163 1.325-.493-1.345-3.994-1.375-1.803-2.5-3.599-2.5-3.992 0-1.967-4.356-12.317-5.014-11.911-.417.259-1.315-.2-1.995-1.019-.68-.819-1.856-1.489-2.613-1.489-.812 0-1.378-1.052-1.378-2.559 0-1.684-.396-2.314-1.158-1.844-.793.491-.98.037-.593-1.441.31-1.186.156-2.156-.343-2.156-1.097 0-1.218-3.689-.142-4.354.42-.26.6-2.537.399-5.059-.342-4.311-.539-4.587-3.264-4.587-2.554 0-2.899.356-2.899 3m339.079-1.417c.048 1.165.285 1.402.604.605.289-.722.253-1.585-.079-1.917-.332-.332-.568.258-.525 1.312M299.272 415c0 2.475.195 3.488.434 2.25.238-1.238.238-3.262 0-4.5-.239-1.238-.434-.225-.434 2.25m48.728-.5c0 .833.889 1.5 2 1.5s2-.667 2-1.5-.889-1.5-2-1.5-2 .667-2 1.5m14.651-.032c-.31.807-.133 1.734.393 2.059.526.325.956-.336.956-1.468 0-2.415-.556-2.658-1.349-.591M420 415c0 .55.477 1 1.059 1s.781-.45.441-1-.816-1-1.059-1-.441.45-.441 1m44 0c0 .55.45 1 1 1s1-.45 1-1-.45-1-1-1-1 .45-1 1m346 1.059c0 .582.45.781 1 .441s1-.816 1-1.059-.45-.441-1-.441-1 .477-1 1.059M423 417c0 .55.675 1 1.5 1s1.5-.45 1.5-1-.675-1-1.5-1-1.5.45-1.5 1m7.275 1c.083 1.1.505 2 .938 2 .433 0 .787-.9.787-2s-.422-2-.938-2-.87.9-.787 2M476 416.938c0 .519.468 1.233 1.041 1.587.572.354.768 1.618.434 2.809-.425 1.518-.326 1.762.329.818.749-1.079 1.361-.892 3.067.94 3.731 4.005-3.027 4.703-7.27.751-1.088-1.014-2.343-1.843-2.79-1.843-.446 0-.811-.9-.811-2 0-1.333-.667-2-2-2-2.734 0-2.75 5.018-.022 6.984 2.145 1.546 1.086 2.972-2.228 3.001-1.41.012-1.75-.86-1.75-4.485V419h-8c-4.667 0-8 .417-8 1 0 .55-1.8 1-4 1-2.889 0-4 .417-4 1.5s1.111 1.5 4 1.5c7.729 0 4.841 2.687-3.75 3.488-7.003.654-9.189 1.544-9.235 3.762-.008.413.885.75 1.985.75s2 .502 2 1.117c0 .631-.886.885-2.041.583-1.713-.448-1.936-.186-1.387 1.633.625 2.068.548 2.055-1.686-.286-1.71-1.791-2.313-3.528-2.237-6.441.097-3.714.003-3.855-1.362-2.048-1.446 1.914-1.462 1.914-1.113-.058.216-1.226 1.188-2.042 2.511-2.11 1.898-.096 2.044.192 1.211 2.382-1.053 2.77-.335 6.228 1.294 6.228.716 0 .701-.426-.047-1.328-.699-.842-.8-2.396-.276-4.25 1.398-4.949-.992-7.386-3.858-3.933-.68.819-1.633 1.243-2.119.943-1.565-.967 2.208 7.362 6.37 14.064 3.728 6.001 4.994 7.465 5.946 6.877.603-.373.852-.057.582.738-.818 2.413 19.355 21.368 22.778 21.402.711.007 1.662.416 2.113.91.479.523.196.561-.679.091-1.041-.56-1.194-.482-.5.257 2.091 2.226 12.563 7.308 13.66 6.63.665-.411.878-.272.506.331-.822 1.329 15.938 8.611 17.609 7.651.674-.387.878-.322.454.144-.942 1.037 8.253 4.678 10.073 3.989.716-.271 1.061-.104.767.372-.711 1.152 14.167 6.393 15.612 5.5.621-.383.867-.274.547.243-.319.516 9.174 4.481 21.096 8.809 43.858 15.925 62.898 25.003 79.676 37.987 67.031 51.878 63.6 146-7.263 199.287-54.167 40.731-128.181 46.207-193.757 14.336-42.232-20.526-70.282-49.594-82.068-85.05-4.238-12.748-4.27-37.511-.065-49.5 3.51-10.004 8.789-20.131 13.154-25.23l3.349-3.913-13.675-5.383c-40.338-15.877-74.577-38.942-95.709-64.474-2.731-3.3-5.206-6.225-5.499-6.5-7.524-7.059-26.967-47.692-26.967-56.358 0-.903-.398-1.642-.883-1.642-.486 0-1.119-.901-1.407-2.001-.333-1.274-.132-1.76.553-1.336.691.427.837.04.407-1.081-.369-.96-.702-2.721-.74-3.914-.068-2.099-.098-2.104-.93-.168-.473 1.1-.898 1.55-.945 1-.047-.55-.571-.325-1.165.5-.897 1.248-.979 1.192-.484-.332.327-1.007.601-3.032.609-4.5.012-2.09.226-2.343.985-1.168.681 1.054.945-.286.886-4.5l-.084-6-1.386 4.416c-2.085 6.646-6.202 27.176-7.938 39.584-9.021 64.481 4.148 135.533 35.768 192.988C305.11 796.433 460.14 861.541 597.307 821.544c4.845-1.413 11.029-3.694 13.744-5.07 2.714-1.375 5.062-2.382 5.217-2.237.155.144.945-.297 1.757-.981.811-.684 6.875-4.784 13.475-9.112 19.247-12.62 29.696-22.059 45.774-41.35 56.938-68.313 68.176-158.051 27.481-219.438-23.966-36.152-53.123-56.145-113.755-78.006-26.776-9.654-85.656-28.523-89.667-28.735-1.191-.063-1.995-.286-1.785-.496.209-.21-2.247-2.01-5.459-4-7.058-4.373-9.45-6.356-14.339-11.884-2.062-2.333-3.75-3.816-3.75-3.297m-55 1.171c0 .83.698 2.382 1.552 3.45 1.491 1.865 1.526 1.844.887-.559-.819-3.085-2.439-5.005-2.439-2.891m269.6.491c-.356.927-.422 1.911-.147 2.186.275.275.791-.259 1.147-1.186.356-.927.422-1.911.147-2.186-.275-.275-.791.259-1.147 1.186m-326.777 2.786c-.256 2.2-.007 3.238.712 2.962.611-.234.913-1.751.673-3.386-.564-3.841-.899-3.739-1.385.424M300.232 424c0 1.925.206 2.712.457 1.75.252-.962.252-2.538 0-3.5-.251-.962-.457-.175-.457 1.75m54.019 1.75c-.169 3.559.621 4.521 2.318 2.824 1.399-1.399 1.407-1.741.074-3.074-1.926-1.926-2.291-1.888-2.392.25m11.381 1.649c.464 2.038.323 2.691-.475 2.198-.7-.433-.931-.171-.603.684.901 2.346 3.568 1.69 2.84-.698-1.116-3.658-2.483-5.352-1.762-2.184m116.557-.716c-1.034.414-.975.897.283 2.287 1.499 1.655 1.381 1.738-1.938 1.372-2.167-.238-3.534.043-3.534.727 0 .743 1.846.96 5.525.649 4.375-.37 6.021-.077 7.908 1.408 3.436 2.703 4.32 2.304 1.513-.683-1.484-1.58-3.109-2.372-4.253-2.073-1.353.354-1.692.07-1.261-1.054.408-1.062.138-1.365-.87-.978-.98.376-1.277.083-.904-.889.568-1.48-.139-1.699-2.469-.766M468 430c0 1.556.667 2 3 2 3.355 0 3.654-.489 1.571-2.571-2.081-2.082-4.571-1.77-4.571.571m10-1.607c0 .216.698.661 1.552.989.89.341 1.291.173.941-.393-.587-.951-2.493-1.406-2.493-.596M692 431c0 .55.45 1 1 1s1-.45 1-1-.45-1-1-1-1 .45-1 1m-382 2.5c0 .825.45 1.5 1 1.5s1-.675 1-1.5-.45-1.5-1-1.5-1 .675-1 1.5m4.615-.06c.927 2.415 5.385 4.967 5.385 3.083 0-1.11 1.084-1.523 4-1.523 2.889 0 4-.417 4-1.5 0-1.19-1.441-1.5-6.969-1.5-5.654 0-6.864.272-6.416 1.44M440 433c0 .55.9 1 2 1s2-.45 2-1-.9-1-2-1-2 .45-2 1m242.667.667c-.367.366-.667 1.131-.667 1.7 0 .626.466.567 1.183-.15.651-.651.951-1.416.667-1.7-.284-.284-.817-.217-1.183.15m3.333.392c0 .582.45.781 1 .441s1-.816 1-1.059-.45-.441-1-.441-1 .477-1 1.059m-197.493 1.93c-.35.566.051.734.941.393 1.732-.665 2.049-1.382.611-1.382-.518 0-1.216.445-1.552.989M684.29 438c.363 1.39.017 2.024-1.134 2.079-.977.047-1.159.28-.444.571.667.27 2.017.023 3-.549 1.163-.677 1.314-1.051.431-1.071-.791-.017-1.117-.656-.781-1.53.316-.825.087-1.5-.51-1.5s-.85.9-.562 2m-315.834 2.5c.406 2.2.792 4.755.856 5.679.064.923.572 1.598 1.129 1.5.556-.099 1.166.833 1.355 2.071.189 1.238.699 2.25 1.135 2.25.435 0 .318-1.773-.261-3.941-.578-2.168-1.416-3.716-1.861-3.441-.445.275-.842-.089-.883-.809-.151-2.647-.988-6.203-1.59-6.748-.341-.309-.287 1.239.12 3.439M496 437.393c0 .216.698.661 1.552.989.89.341 1.291.173.941-.393-.587-.951-2.493-1.406-2.493-.596m-7.187 1.29c.721.289 1.584.253 1.916-.079.332-.332-.258-.568-1.312-.525-1.165.048-1.402.285-.604.604m-55.222 2.17c-.29.469.119 1.706.909 2.75.79 1.043 1.451 1.424 1.468.847.018-.577-.305-1.493-.718-2.034-.413-.542.188-.019 1.333 1.162l2.084 2.146v-2.901c0-1.596-.319-2.386-.709-1.756-.513.831-.896.842-1.392.04-.815-1.319-2.242-1.441-2.975-.254m244.076-.186c-.956.955-.822 2.333.226 2.333.491 0 1.152-.675 1.469-1.5.585-1.524-.481-2.048-1.695-.833m12.083 1.039c1.237.238 3.263.238 4.5 0 1.237-.239.225-.434-2.25-.434s-3.487.195-2.25.434m-379.671 1.877c.048 1.165.285 1.402.604.605.289-.722.253-1.585-.079-1.917-.332-.332-.568.258-.525 1.312m372.671-.921c.688.278 1.813.278 2.5 0 .688-.277.125-.504-1.25-.504s-1.937.227-1.25.504m-162.937 2.021c.721.289 1.584.253 1.916-.079.332-.332-.258-.568-1.312-.525-1.165.048-1.402.285-.604.604M441 450.258c3.917 4.164 4.529 4.413 5.382 2.19.358-.933.18-1.295-.447-.908-.572.354-1.917-.367-2.988-1.601-1.071-1.235-1.947-1.896-1.947-1.47 0 .427-.788.167-1.75-.578s-.175.321 1.75 2.367m255.441-1.813c1.068.855 2.38 1.555 2.917 1.555 1.27 0 .703-.462-2.358-1.92-2.357-1.122-2.389-1.102-.559.365m-327.362 2.138c.048 1.165.285 1.402.604.605.289-.722.253-1.585-.079-1.917-.332-.332-.568.258-.525 1.312M702 451c.825.533 1.95.969 2.5.969s.325-.436-.5-.969c-.825-.533-1.95-.969-2.5-.969s-.325.436.5.969m4.083 1.365c.23.2 1.542.9 2.917 1.555 2.357 1.122 2.389 1.102.559-.365-1.593-1.276-4.848-2.391-3.476-1.19m-254.986 4.554c-1.012.641-.69.846 1.154.735 1.406-.085 2.349-.491 2.094-.904-.602-.975-1.517-.927-3.248.169m-74.49 1.907c-.281.455-.267 1.759.031 2.899.478 1.826 1.045 2.007 4.234 1.352.205-.043-.183-.747-.863-1.566-.68-.819-1.711-1.195-2.292-.836-.659.407-.816.026-.418-1.011.662-1.727.202-2.284-.692-.838m75.476.457c.23.156 1.317.943 2.417 1.75 1.85 1.357 1.897 1.336.628-.283-.755-.962-1.843-1.75-2.417-1.75-.574 0-.857.127-.628.283m195.518 342.881c.255.412 1.124.495 1.931.185 2.036-.781 1.834-1.252-.463-1.079-1.062.08-1.722.482-1.468.894" fill-rule="evenodd"/><path fill="#123e51" stroke="#123e51" d="M519.813 540.683c.721.289 1.584.253 1.916-.079.332-.332-.258-.568-1.312-.525-1.165.048-1.402.285-.604.604M532.5 545c.34.55 1.068 1 1.618 1s.722-.45.382-1c-.34-.55-1.068-1-1.618-1s-.722.45-.382 1m8.233 3.124c.679.684 1.486.991 1.793.683.308-.308-.247-.867-1.233-1.243-1.425-.542-1.54-.428-.56.56m4.267 1.707c.825.51 2.625 1.228 4 1.596 1.737.465 2.042.386 1-.258-.825-.51-2.625-1.228-4-1.596-1.737-.465-2.042-.386-1 .258m95.197 8.086a1392.12 1392.12 0 0 0 4.609 5.083c.256.275-.005-.4-.579-1.5s-2.196-3.078-3.604-4.395c-1.409-1.318-2.37-2.705-2.136-3.084.234-.378-.218-.688-1.005-.688-.845 0 .266 1.875 2.715 4.584M706 553.941c0 .518.445 1.216.989 1.552.566.35.734-.051.393-.941-.665-1.732-1.382-2.049-1.382-.611m-149.569.947c.718 1.163-2.252 2.32-3.771 1.469-.872-.489-.876-.342-.017.589.88.955 1.64.973 3.314.077 2.26-1.21 5.599.268 4.527 2.003-.272.439.633.675 2.011.524 1.378-.151 2.505.136 2.505.639 0 .502 1.575 1.571 3.5 2.375 1.925.805 3.5 1.955 3.5 2.556 0 .629.744.811 1.75.428 1.446-.551 1.521-.439.433.643-1.087 1.08-1.569.968-2.754-.637-1.157-1.568-1.679-1.7-2.683-.679-.997 1.015-.947 1.204.254.946.825-.176 1.403.196 1.284.827-.13.693.978 1.065 2.795.94 2.239-.155 3.822.621 6.177 3.03 1.742 1.781 3.491 3.038 3.886 2.794.396-.245.983-.018 1.305.503 1.019 1.648-1.163 2.132-2.477.549-1.118-1.347-1.462-1.328-3.113.166-1.022.924-1.913 1.385-1.982 1.025A37.636 37.636 0 0 0 576.5 574c-.138-.55-.306-1.675-.375-2.5-.089-1.062-1.292-1.5-4.125-1.5-2.2 0-4-.45-4-1s-1.35-1-3-1c-2.807 0-3.615-1.102-3.118-4.25.065-.413-.332-.75-.882-.75s-1 .675-1 1.5c0 1.167-1.333 1.5-6 1.5-3.333 0-6 .444-6 1s-2.667 1-6 1c-4.667 0-6 .333-6 1.5 0 1.208-1.556 1.5-8 1.5-4.667 0-8 .417-8 1 0 .55-1.8 1-4 1-2.889 0-4 .417-4 1.5 0 .825-.675 1.5-1.5 1.5s-1.5.45-1.5 1 .675 1 1.5 1c.833 0 1.5.889 1.5 2 0 1.1-.482 2-1.071 2-.59 0-1.747.675-2.572 1.5-1.333 1.333-1.27 1.5.572 1.5 1.139 0 2.071.459 2.071 1.019 0 .576-1.194.784-2.75.477-2.511-.495-2.554-.456-.5.449 1.387.61 3.113.644 4.5.086 1.327-.533 1.635-.943.75-.998-3.619-.226 1.7-1.799 6-1.774 3.235.019 3.938.247 2.5.813l-2 .787 2 .141c1.947.137 1.949.161.066.898-2.601 1.019-.339 2.427 2.693 1.676 1.233-.306 1.676-.296.985.021s-.955 1.064-.586 1.66c.444.719.025.836-1.244.345-1.053-.407-3.233-1.006-4.845-1.331l-2.93-.591 2.406-.89c2.562-.948 1.219-2.757-2.045-2.757-1.295 0-1.302.125-.052.916 1.128.713.819 1.073-1.396 1.629-2.665.669-2.473.829 3.052 2.548 3.243 1.008 6.74 1.57 7.771 1.247 1.1-.343 1.624-.179 1.269.396-.334.54 1.545 1.876 4.176 2.969 2.63 1.094 6.784 3.272 9.231 4.841 2.447 1.569 4.786 2.756 5.199 2.638.413-.118.638.133.5.559-.137.425 1.69 2.788 4.06 5.25 8.586 8.917 11.69 17.399 11.69 31.945 0 12.292-.077 12.729-3.425 19.552C549.47 677.056 532.683 687 511.684 687c-26.19 0-43.583-12.773-57.448-42.186-12.721-26.989-36.024-35.09-52.77-18.347-26.444 26.438 10.333 79.91 67.721 98.466 34.398 11.122 70.683 6.837 99.313-11.728 46.099-29.894 59.222-80.082 32.049-122.562-8.701-13.6-31.505-32.98-37.399-31.783-.838.17-1.064-.19-.596-.948.483-.78.338-.964-.399-.507-.635.392-1.155.309-1.155-.185 0-.495-1.154-1.425-2.564-2.067-1.41-.643-2.312-.762-2.005-.265M707 559c-1.282.828-1.246.972.25.985.962.008 1.75-.435 1.75-.985 0-1.22-.113-1.22-2 0m-11 2.5c0 1.083-1.111 1.5-4 1.5-2.889 0-4 .417-4 1.5 0 1.179-1.389 1.5-6.5 1.5-3.667 0-6.5.436-6.5 1 0 .55-.675 1-1.5 1s-1.5.675-1.5 1.5c0 1.127-1.205 1.5-4.845 1.5-4.723 0-8.155 1.974-8.155 4.69 0 .568-1.125.818-2.5.555-1.375-.263-2.5-1.127-2.5-1.921 0-.793.432-1.175.96-.849.548.339.483-.774-.151-2.594-1.038-2.977-1.201-3.066-2.46-1.343-.742 1.014-1.349 1.356-1.349.76 0-.596-.735-1.366-1.634-1.711-1.167-.448-.919.31.868 2.653 7.446 9.762 14.796 29.664 17.357 46.998 12.843 86.914-73.042 163.784-174.334 156.035-72.065-5.514-138.474-49.968-155.67-104.206-1.234-3.892-2.433-6.894-2.665-6.671-.232.223-.534-2.138-.67-5.245-.137-3.108-.688-7.676-1.224-10.151-.824-3.798-.911-3.097-.555 4.5l.422 9-1.948-5.462c-1.071-3.003-1.947-6.491-1.947-7.75 0-1.367-.604-2.288-1.5-2.288-.825 0-1.5-.675-1.5-1.5s-.45-1.5-1-1.5-1-.675-1-1.5c0-.833.889-1.5 2-1.5 1.1 0 2 .525 2 1.167 0 .641.207.959.46.706 1.531-1.531-.923-4.873-3.577-4.873-2.537 0-2.883.36-2.883 3 0 1.65-.45 3-1 3s-1-.675-1-1.5c0-1.083-1.111-1.5-4-1.5-2.889 0-4-.417-4-1.5s-1.111-1.5-4-1.5c-3.905 0-4 .083-4 3.5 0 2.833-.381 3.5-2 3.5-1.1 0-2 .45-2 1s.844 1 1.875 1c1.333 0 1.875.722 1.875 2.5 0 1.808-.537 2.5-1.941 2.5-1.067 0-2.733.424-3.702.943-1.268.678-3.239.258-7.033-1.5-2.9-1.344-5.903-2.443-6.673-2.443-.771 0-1.413-.337-1.428-.75-.015-.413-2.49-1.871-5.5-3.242-3.01-1.37-5.473-2.833-5.473-3.25 0-.417-.694-.758-1.542-.758-.848 0-2.086-.45-2.75-1.001-1.067-.884-17.392-11.871-21.544-14.499-.869-.55-2.091-1.45-2.716-2-18.478-16.259-19.613-17.424-28.937-29.697-7.105-9.353-9.18-12.883-11.342-19.303-1.933-5.736-1.156.572 1.755 14.255 15.181 71.352 60.706 140.923 119.582 182.745 44.169 31.375 92.51 51.17 145.805 59.705 17.009 2.724 64.105 3.313 80.189 1.002 27.505-3.952 50.437-9.994 62.5-16.468 59.016-31.675 101.53-90.561 113.522-157.239 4.205-23.38 1.713-61.931-4.974-76.946-.748-1.68-1.615-4.209-1.927-5.62-.312-1.411-1.485-3.624-2.608-4.918-1.276-1.472-1.83-3.133-1.479-4.435.496-1.838.434-1.878-.529-.344-.79 1.259-.78 2.314.034 3.835.618 1.155.862 2.361.542 2.68-.32.32-.581.008-.581-.692 0-.702-.651-1.024-1.449-.718-.969.372-1.265.076-.892-.895.739-1.926-.438-6.447-1.678-6.447-.54 0-.981.675-.981 1.5s-.45 1.5-1 1.5-1-.675-1-1.5c0-.833-.889-1.5-2-1.5s-2-.667-2-1.5c0-1.083-1.111-1.5-4-1.5-2.889 0-4 .417-4 1.5m17.195 1c.02 1.65.244 2.204.498 1.231.254-.973.237-2.323-.037-3-.274-.677-.481.119-.461 1.769m-67.615 1.37c-.307.497.112 1.459.931 2.139 1.211 1.005 1.489.944 1.489-.328 0-1.866-1.631-3.087-2.42-1.811m-68.569 7.151c.595 1.111.749 2.574.343 3.25-.516.86-.25.834.887-.088 1.499-1.214 1.496-1.467-.03-3.25-2.13-2.488-2.561-2.456-1.2.088m-123.198-.338c.721.289 1.584.253 1.916-.079.332-.332-.258-.568-1.312-.525-1.165.048-1.402.285-.604.604m198.77.183c-.431.697-.513 1.537-.183 1.867.895.895 1.871-.421 1.387-1.871-.338-1.016-.574-1.016-1.204.004m64.033 2.693c-.365.95-.427 1.963-.14 2.251.288.288.531-.114.539-.893.013-1.167.187-1.152.985.083.533.825.969 1.05.969.5 0-2.336-1.672-3.715-2.353-1.941m-223.109 3.452c.336.544.059.989-.615.989-.674 0-.959.266-.634.592.326.325 1.35.167 2.276-.351 1.564-.876 1.566-.989.024-1.581-.977-.374-1.41-.229-1.051.351M512 577c0 .55.9 1 2 1s2-.45 2-1-.9-1-2-1-2 .45-2 1m75.14.852c.636 1.018 2.102 2.425 3.258 3.125 1.472.891 1.221.336-.835-1.852-3.344-3.558-4.097-3.953-2.423-1.273m73.988-.952c-.754.478-1.167 1.482-.917 2.232.316.949.819.681 1.657-.885 1.329-2.484 1.259-2.613-.74-1.347M478.5 578c-1.63.701-1.688.872-.309.93.93.038 1.969-.38 2.309-.93.711-1.15.676-1.15-2 0m178.62 1.5c.89 1.1 1.867 2.675 2.171 3.5.468 1.273.563 1.259.63-.095.043-.877-.934-2.452-2.171-3.5-2.231-1.889-2.236-1.888-.63.095m5.547.167c-.367.366-.638 1.604-.604 2.75.059 1.915.141 1.89 1.022-.312.979-2.448.776-3.633-.418-2.438M485.5 581c1.1.473 2.675.859 3.5.859.945 0 .761-.317-.5-.859-1.1-.473-2.675-.859-3.5-.859-.945 0-.761.317.5.859m14.712 4.214c1.495.511 3.385.551 4.211.089 1.006-.563.115-.868-2.712-.928-3.824-.081-3.962-.004-1.499.839m93.464.536c-.498.846.984 5.25 1.767 5.25.279 0 .097-1.079-.404-2.397-.501-1.319-.64-2.669-.308-3 .331-.332.329-.603-.005-.603-.335 0-.807.337-1.05.75m66.888.957c-.542 1.425-.428 1.54.56.56.684-.679.991-1.486.683-1.793-.308-.308-.867.247-1.243 1.233m161.515.876c.048 1.165.285 1.402.604.605.289-.722.253-1.585-.079-1.917-.332-.332-.568.258-.525 1.312M529 592.393c0 .216.698.661 1.552.989.89.341 1.291.173.941-.393-.587-.951-2.493-1.406-2.493-.596m5.143 1.765c.746.5 2.257 1.369 3.357 1.931 1.879.96 1.891.934.197-.433-1.338-1.079-1.467-1.572-.5-1.91.717-.251.017-.465-1.554-.476-2.038-.014-2.468.24-1.5.888m-187.888 4.092c-1.415 1.787-3.406 5.75-2.889 5.75.24 0 1.366-1.575 2.501-3.5 2.064-3.498 2.256-4.609.388-2.25m195.15.608c2.038 2.292 2.595 2.588 2.595 1.383 0-.418-1.013-1.382-2.25-2.142-2.242-1.377-2.243-1.375-.345.759M337 601.941c0 .518.445 1.216.989 1.552.566.35.734-.051.393-.941-.665-1.732-1.382-2.049-1.382-.611M548 603c.589 1.1 1.295 2 1.57 2 .275 0 .019-.9-.57-2s-1.295-2-1.57-2c-.275 0-.019.9.57 2m270.079.583c.048 1.165.285 1.402.604.605.289-.722.253-1.585-.079-1.917-.332-.332-.568.258-.525 1.312m-479.455 8.956c-.965 2.514-.681 3.163.498 1.136.584-1.004.851-2.036.593-2.293-.257-.258-.749.263-1.091 1.157m473.455 10.044c.048 1.165.285 1.402.604.605.289-.722.253-1.585-.079-1.917-.332-.332-.568.258-.525 1.312m-482 4c.048 1.165.285 1.402.604.605.289-.722.253-1.585-.079-1.917-.332-.332-.568.258-.525 1.312m4 1c.048 1.165.285 1.402.604.605.289-.722.253-1.585-.079-1.917-.332-.332-.568.258-.525 1.312m-.933 4.417c-.095 1.375-.423 3.625-.728 5-.479 2.154-.399 2.255.575.728.622-.974.95-3.224.729-5-.313-2.511-.44-2.673-.576-.728m-1.067 9.583c.048 1.165.285 1.402.604.605.289-.722.253-1.585-.079-1.917-.332-.332-.568.258-.525 1.312M285.5 642c.34.55 1.041 1 1.559 1s.941-.45.941-1-.702-1-1.559-1-1.281.45-.941 1m43.5 1.941c0 .518.45 1.219 1 1.559.55.34 1-.084 1-.941s-.45-1.559-1-1.559-1 .423-1 .941M296 645c0 .55.45 1 1 1s1-.45 1-1-.45-1-1-1-1 .45-1 1m-7.559 2.532c1.068.807 2.665 1.468 3.55 1.468.885 0 2.037.412 2.559.916.58.56 1.452.365 2.239-.5 1.087-1.194.813-1.416-1.75-1.416-1.671 0-3.039-.45-3.039-1s-1.238-.986-2.75-.968c-2.634.03-2.668.094-.809 1.5M320 652c0 2.381-.472 4-1.167 4-.641 0-.931.236-.643.524.288.287 1.263.239 2.167-.107 1.825-.701 2.415-8.417.643-8.417-.55 0-1 1.8-1 4m9.273 8c0 3.525.179 4.01.831 2.248.457-1.237.457-3.259 0-4.496-.652-1.762-.831-1.277-.831 2.248m-18.773-2c.34.55.816 1 1.059 1s.441-.45.441-1-.477-1-1.059-1-.781.45-.441 1m4.25 1.662c.688.278 1.813.278 2.5 0 .688-.277.125-.504-1.25-.504s-1.937.227-1.25.504M320 660c0 .55.477 1 1.059 1s.781-.45.441-1-.816-1-1.059-1-.441.45-.441 1" fill-rule="evenodd"/></svg>